<?xml version="1.0" standalone="no"?>
<!DOCTYPE svg PUBLIC "-//W3C//DTD SVG 20010904//EN"
 "http://www.w3.org/TR/2001/REC-SVG-20010904/DTD/svg10.dtd">
<svg version="1.0" xmlns="http://www.w3.org/2000/svg"
 width="512.000000pt" height="512.000000pt" viewBox="0 0 512.000000 512.000000"
 preserveAspectRatio="xMidYMid meet">

<g transform="translate(0.000000,512.000000) scale(0.100000,-0.100000)"
fill="#000000" stroke="none">
<path d="M3098 4077 c-131 -37 -210 -142 -210 -279 0 -203 196 -338 386 -268
141 53 219 215 172 358 -47 139 -209 228 -348 189z"/>
<path d="M1369 3124 c-58 -17 -131 -81 -158 -137 -49 -102 -34 -217 40 -301
62 -70 108 -91 204 -91 89 0 137 19 194 76 57 57 76 105 76 194 0 95 -19 139
-88 202 -72 67 -170 88 -268 57z"/>
<path d="M3864 2546 c-39 -14 -97 -37 -130 -51 -500 -224 -1137 -394 -1664
-445 -63 -6 -148 -15 -188 -21 -40 -5 -144 -9 -230 -9 -237 -1 -355 -14 -408
-45 -100 -58 -127 -167 -84 -327 46 -173 136 -321 282 -467 52 -51 102 -97
111 -103 15 -8 17 -27 17 -143 0 -172 13 -267 54 -387 44 -131 86 -198 181
-294 145 -145 307 -221 522 -244 292 -31 599 91 758 302 96 127 160 299 172
465 l6 82 61 27 c197 87 455 292 585 464 214 283 311 535 311 807 0 203 -44
323 -144 388 -42 28 -133 28 -212 1z m46 -330 c-15 -48 -85 -160 -145 -236
-101 -126 -207 -212 -405 -329 -131 -78 -226 -119 -375 -163 -266 -78 -443
-102 -684 -95 -340 9 -580 87 -780 252 -108 89 -107 99 9 90 205 -17 681 32
1069 110 477 96 1032 272 1286 407 35 19 41 11 25 -36z"/>
</g>
</svg>
